<svg version="1.1" id="Layer_2" xmlns="http://www.w3.org/2000/svg" x="0" y="0" viewBox="0 0 1950 650" xml:space="preserve"><style>.st0{fill:#7347b2}.st1{fill:#4be79d}.st2{fill:#0a9ee5}.st3{fill:#9682d1}.st4{fill:#1fd4b0}</style><ellipse class="st0" cx="225.5" cy="366.6" rx="92.8" ry="91.6"/><ellipse class="st0" cx="1703.7" cy="213.6" rx="60.7" ry="59.9"/><ellipse class="st1" cx="199.1" cy="184" rx="39.3" ry="38.8"/><ellipse class="st2" cx="263.4" cy="540.7" rx="37.8" ry="37.4"/><ellipse class="st3" cx="1767.3" cy="260.8" rx="35.7" ry="35.3"/><ellipse class="st3" cx="139.9" cy="455.4" rx="57.1" ry="56.4"/><ellipse class="st1" cx="1788.7" cy="582.5" rx="64.2" ry="63.5"/><path class="st2" d="M1950 73.1c-4.6-.8-9.4-1.2-14.3-1.2-47.3 0-85.7 37.9-85.7 84.6s38.3 84.6 85.7 84.6c4.9 0 9.6-.4 14.3-1.2V73.1z"/><path class="st4" d="M1950 379.3c-20.4-14.6-46.5-24.6-74.9-24.6-65 0-117.8 52.1-117.8 116.3s52.7 116.3 117.8 116.3c28.5 0 54.6-10 74.9-28.6V379.3zM0 227.6c14.6 6.4 30.8 10 47.8 10 65 0 117.8-52.1 117.8-116.3S112.9 5 47.8 5C30.8 5 14.6 8.6 0 15v212.6z"/></svg>